<svg width="24" height="24" viewBox="0 0 24 24" fill="none" xmlns="http://www.w3.org/2000/svg">
<path d="M12.5168 1.57251H11.4857V15.9678H12.5168V1.57251Z" fill="#FFED92"/>
<path d="M0.933392 13.424L0.204346 14.1531L8.78376 22.7325L9.5128 22.0034L0.933392 13.424Z" fill="#FFED92"/>
<path d="M23.0661 13.4217L14.478 22.0098L15.2071 22.7388L23.7952 14.1507L23.0661 13.4217Z" fill="#FFED92"/>
<path d="M12.0012 16.4833C11.8889 16.4833 11.7767 16.4467 11.6833 16.3736C11.6393 16.3391 10.5941 15.5146 9.5395 14.1791C8.12116 12.383 7.37146 10.5126 7.37146 8.77007C7.37146 7.02757 8.12116 5.15722 9.5395 3.36106C10.5941 2.02554 11.6393 1.201 11.6833 1.16655C11.87 1.02033 12.1324 1.02033 12.319 1.16655C12.363 1.201 13.4082 2.02554 14.4628 3.36106C15.8812 5.15722 16.6309 7.02762 16.6309 8.77007C16.6309 10.5125 15.8812 12.3829 14.4628 14.1791C13.4082 15.5146 12.363 16.3391 12.319 16.3736C12.2257 16.4466 12.1134 16.4833 12.0012 16.4833ZM12.0012 2.24965C11.0678 3.08198 8.40254 5.7257 8.40254 8.77007C8.40254 11.8144 11.0676 14.458 12.0012 15.2904C12.9346 14.4581 15.5998 11.8144 15.5998 8.77007C15.5998 5.7257 12.9347 3.08212 12.0012 2.24965Z" fill="white"/>
<path d="M8.06205 22.9371C6.5282 22.9371 3.80739 22.6601 2.04221 20.8949C-0.475537 18.3772 0.0342632 13.9152 0.0572272 13.7265C0.085815 13.4911 0.271355 13.3055 0.506759 13.277C0.695486 13.254 5.15748 12.7442 7.67523 15.2619C10.1929 17.7796 9.68313 22.2417 9.66016 22.4304C9.63157 22.6658 9.44603 22.8513 9.21063 22.8799C9.15425 22.8868 8.71592 22.9371 8.06205 22.9371ZM1.04955 14.2692C0.993971 15.3759 1.01914 18.4138 2.77124 20.1659C4.52302 21.9177 7.5606 21.9431 8.66788 21.8876C8.72346 20.7809 8.6983 17.743 6.94619 15.9909C5.19437 14.2391 2.15693 14.2138 1.04955 14.2692Z" fill="white"/>
<path d="M15.9304 22.9435C15.2756 22.9435 14.8371 22.893 14.7806 22.8862C14.5452 22.8576 14.3597 22.6721 14.3311 22.4367C14.3081 22.2477 13.7978 17.7814 16.3179 15.2613C18.838 12.7413 23.3043 13.2516 23.4931 13.2745C23.7286 13.3031 23.9141 13.4887 23.9427 13.7241C23.9656 13.913 24.476 18.3793 21.9559 20.8994C20.1892 22.6661 17.4658 22.9435 15.9304 22.9435ZM15.3234 21.8939C16.4309 21.9495 19.4726 21.9246 21.2269 20.1703C22.9811 18.4161 23.0061 15.3747 22.9504 14.2668C21.8429 14.2112 18.8012 14.2361 17.047 15.9904C15.2928 17.7445 15.2677 20.786 15.3234 21.8939Z" fill="white"/>
</svg>
